<mxfile host="app.diagrams.net" agent="Mozilla/5.0 (Windows NT 10.0; Win64; x64) AppleWebKit/537.36 (KHTML, like Gecko) Chrome/136.0.0.0 Safari/537.36" version="27.0.2">
  <diagram name="Page-1" id="bAa-K6QBdSn_V-wN1Gk9">
    <mxGraphModel dx="2130" dy="768" grid="1" gridSize="11" guides="1" tooltips="1" connect="1" arrows="1" fold="1" page="1" pageScale="1" pageWidth="827" pageHeight="1169" math="0" shadow="0">
      <root>
        <mxCell id="0" />
        <mxCell id="1" parent="0" />
        <mxCell id="Lu-fr-W5cNsqdgwYgwqe-1" value="&lt;font style=&quot;font-size: 21px;&quot;&gt;user_name&lt;/font&gt;" style="ellipse;whiteSpace=wrap;html=1;" vertex="1" parent="1">
          <mxGeometry x="-533" y="149" width="119" height="60" as="geometry" />
        </mxCell>
        <mxCell id="Lu-fr-W5cNsqdgwYgwqe-2" value="&lt;font style=&quot;font-size: 21px;&quot;&gt;Phone_num&lt;/font&gt;" style="ellipse;whiteSpace=wrap;html=1;" vertex="1" parent="1">
          <mxGeometry x="-203" y="191" width="119" height="61" as="geometry" />
        </mxCell>
        <mxCell id="Lu-fr-W5cNsqdgwYgwqe-3" value="&lt;font style=&quot;font-size: 21px;&quot;&gt;role/privilege&lt;/font&gt;" style="ellipse;whiteSpace=wrap;html=1;" vertex="1" parent="1">
          <mxGeometry x="-621" y="209" width="132" height="62" as="geometry" />
        </mxCell>
        <mxCell id="Lu-fr-W5cNsqdgwYgwqe-4" value="&lt;u&gt;&lt;font style=&quot;font-size: 21px;&quot;&gt;user_id&lt;/font&gt;&lt;/u&gt;" style="ellipse;whiteSpace=wrap;html=1;" vertex="1" parent="1">
          <mxGeometry x="-411" y="121" width="98" height="70" as="geometry" />
        </mxCell>
        <mxCell id="Lu-fr-W5cNsqdgwYgwqe-5" value="&lt;font style=&quot;font-size: 21px;&quot;&gt;password&lt;/font&gt;" style="ellipse;whiteSpace=wrap;html=1;" vertex="1" parent="1">
          <mxGeometry x="-314" y="165" width="100" height="58" as="geometry" />
        </mxCell>
        <mxCell id="Lu-fr-W5cNsqdgwYgwqe-6" value="&lt;font style=&quot;font-size: 21px;&quot;&gt;email&lt;/font&gt;" style="ellipse;whiteSpace=wrap;html=1;" vertex="1" parent="1">
          <mxGeometry x="-588" y="275" width="79" height="55" as="geometry" />
        </mxCell>
        <mxCell id="Lu-fr-W5cNsqdgwYgwqe-8" value="&lt;font style=&quot;font-size: 21px;&quot;&gt;User&lt;/font&gt;" style="rounded=0;whiteSpace=wrap;html=1;" vertex="1" parent="1">
          <mxGeometry x="-428.5" y="363" width="99" height="38" as="geometry" />
        </mxCell>
        <mxCell id="Lu-fr-W5cNsqdgwYgwqe-10" value="" style="endArrow=none;html=1;rounded=0;entryX=0.5;entryY=1;entryDx=0;entryDy=0;exitX=0.5;exitY=0;exitDx=0;exitDy=0;" edge="1" parent="1" source="Lu-fr-W5cNsqdgwYgwqe-8" target="Lu-fr-W5cNsqdgwYgwqe-4">
          <mxGeometry width="50" height="50" relative="1" as="geometry">
            <mxPoint x="-387" y="303" as="sourcePoint" />
            <mxPoint x="-337" y="253" as="targetPoint" />
          </mxGeometry>
        </mxCell>
        <mxCell id="Lu-fr-W5cNsqdgwYgwqe-11" value="" style="endArrow=none;html=1;rounded=0;exitX=0.5;exitY=0;exitDx=0;exitDy=0;" edge="1" parent="1" source="Lu-fr-W5cNsqdgwYgwqe-8">
          <mxGeometry width="50" height="50" relative="1" as="geometry">
            <mxPoint x="-280" y="373" as="sourcePoint" />
            <mxPoint x="-268" y="223" as="targetPoint" />
          </mxGeometry>
        </mxCell>
        <mxCell id="Lu-fr-W5cNsqdgwYgwqe-12" value="" style="endArrow=none;html=1;rounded=0;entryX=0.5;entryY=1;entryDx=0;entryDy=0;exitX=0.5;exitY=0;exitDx=0;exitDy=0;" edge="1" parent="1" source="Lu-fr-W5cNsqdgwYgwqe-8">
          <mxGeometry width="50" height="50" relative="1" as="geometry">
            <mxPoint x="-489" y="359" as="sourcePoint" />
            <mxPoint x="-477" y="209" as="targetPoint" />
          </mxGeometry>
        </mxCell>
        <mxCell id="Lu-fr-W5cNsqdgwYgwqe-13" value="" style="endArrow=none;html=1;rounded=0;exitX=0.5;exitY=0;exitDx=0;exitDy=0;" edge="1" parent="1" source="Lu-fr-W5cNsqdgwYgwqe-8" target="Lu-fr-W5cNsqdgwYgwqe-3">
          <mxGeometry width="50" height="50" relative="1" as="geometry">
            <mxPoint x="-414" y="401" as="sourcePoint" />
            <mxPoint x="-517" y="269" as="targetPoint" />
          </mxGeometry>
        </mxCell>
        <mxCell id="Lu-fr-W5cNsqdgwYgwqe-14" value="" style="endArrow=none;html=1;rounded=0;entryX=0.5;entryY=0;entryDx=0;entryDy=0;exitX=0;exitY=0.5;exitDx=0;exitDy=0;" edge="1" parent="1" source="Lu-fr-W5cNsqdgwYgwqe-2" target="Lu-fr-W5cNsqdgwYgwqe-8">
          <mxGeometry width="50" height="50" relative="1" as="geometry">
            <mxPoint x="-232" y="451" as="sourcePoint" />
            <mxPoint x="-335" y="319" as="targetPoint" />
          </mxGeometry>
        </mxCell>
        <mxCell id="Lu-fr-W5cNsqdgwYgwqe-15" value="" style="endArrow=none;html=1;rounded=0;entryX=1;entryY=0.5;entryDx=0;entryDy=0;exitX=0.5;exitY=0;exitDx=0;exitDy=0;" edge="1" parent="1" source="Lu-fr-W5cNsqdgwYgwqe-8" target="Lu-fr-W5cNsqdgwYgwqe-6">
          <mxGeometry width="50" height="50" relative="1" as="geometry">
            <mxPoint x="-441" y="462" as="sourcePoint" />
            <mxPoint x="-544" y="330" as="targetPoint" />
          </mxGeometry>
        </mxCell>
        <mxCell id="Lu-fr-W5cNsqdgwYgwqe-16" value="" style="endArrow=none;html=1;rounded=0;entryX=0.5;entryY=1;entryDx=0;entryDy=0;exitX=0.5;exitY=0;exitDx=0;exitDy=0;" edge="1" parent="1" source="Lu-fr-W5cNsqdgwYgwqe-17">
          <mxGeometry width="50" height="50" relative="1" as="geometry">
            <mxPoint x="-379" y="495" as="sourcePoint" />
            <mxPoint x="-379" y="401" as="targetPoint" />
          </mxGeometry>
        </mxCell>
        <mxCell id="Lu-fr-W5cNsqdgwYgwqe-17" value="&lt;font style=&quot;font-size: 21px;&quot;&gt;Book&lt;/font&gt;" style="rhombus;whiteSpace=wrap;html=1;" vertex="1" parent="1">
          <mxGeometry x="-419" y="484" width="80" height="80" as="geometry" />
        </mxCell>
        <mxCell id="Lu-fr-W5cNsqdgwYgwqe-18" value="" style="endArrow=none;html=1;rounded=0;exitX=0.5;exitY=0;exitDx=0;exitDy=0;" edge="1" parent="1" source="Lu-fr-W5cNsqdgwYgwqe-32">
          <mxGeometry width="50" height="50" relative="1" as="geometry">
            <mxPoint x="-445" y="605" as="sourcePoint" />
            <mxPoint x="-445" y="523" as="targetPoint" />
          </mxGeometry>
        </mxCell>
        <mxCell id="Lu-fr-W5cNsqdgwYgwqe-19" value="" style="endArrow=none;html=1;rounded=0;exitX=0;exitY=0.5;exitDx=0;exitDy=0;" edge="1" parent="1">
          <mxGeometry width="50" height="50" relative="1" as="geometry">
            <mxPoint x="-419" y="524" as="sourcePoint" />
            <mxPoint x="-445" y="524" as="targetPoint" />
          </mxGeometry>
        </mxCell>
        <mxCell id="Lu-fr-W5cNsqdgwYgwqe-21" value="&lt;font style=&quot;font-size: 21px;&quot;&gt;category&lt;/font&gt;" style="ellipse;whiteSpace=wrap;html=1;" vertex="1" parent="1">
          <mxGeometry x="-619" y="665.5" width="97" height="49" as="geometry" />
        </mxCell>
        <mxCell id="Lu-fr-W5cNsqdgwYgwqe-22" value="&lt;font style=&quot;font-size: 21px;&quot;&gt;&lt;u&gt;tableno&lt;/u&gt;&lt;/font&gt;" style="ellipse;whiteSpace=wrap;html=1;" vertex="1" parent="1">
          <mxGeometry x="-522" y="682" width="88" height="55" as="geometry" />
        </mxCell>
        <mxCell id="Lu-fr-W5cNsqdgwYgwqe-23" value="&lt;font style=&quot;font-size: 21px;&quot;&gt;status&lt;/font&gt;" style="ellipse;whiteSpace=wrap;html=1;" vertex="1" parent="1">
          <mxGeometry x="-434" y="673.5" width="77" height="33" as="geometry" />
        </mxCell>
        <mxCell id="Lu-fr-W5cNsqdgwYgwqe-27" value="" style="endArrow=none;html=1;rounded=0;exitX=0.479;exitY=0.982;exitDx=0;exitDy=0;entryX=0.5;entryY=0;entryDx=0;entryDy=0;exitPerimeter=0;" edge="1" parent="1" source="Lu-fr-W5cNsqdgwYgwqe-32" target="Lu-fr-W5cNsqdgwYgwqe-23">
          <mxGeometry width="50" height="50" relative="1" as="geometry">
            <mxPoint x="-451" y="681" as="sourcePoint" />
            <mxPoint x="-455" y="503" as="targetPoint" />
          </mxGeometry>
        </mxCell>
        <mxCell id="Lu-fr-W5cNsqdgwYgwqe-28" value="" style="endArrow=none;html=1;rounded=0;entryX=0.5;entryY=0;entryDx=0;entryDy=0;exitX=0.466;exitY=0.977;exitDx=0;exitDy=0;exitPerimeter=0;" edge="1" parent="1" source="Lu-fr-W5cNsqdgwYgwqe-32" target="Lu-fr-W5cNsqdgwYgwqe-21">
          <mxGeometry width="50" height="50" relative="1" as="geometry">
            <mxPoint x="-451" y="681" as="sourcePoint" />
            <mxPoint x="-664" y="489" as="targetPoint" />
          </mxGeometry>
        </mxCell>
        <mxCell id="Lu-fr-W5cNsqdgwYgwqe-29" value="" style="endArrow=none;html=1;rounded=0;exitX=0.469;exitY=0.998;exitDx=0;exitDy=0;exitPerimeter=0;" edge="1" parent="1" source="Lu-fr-W5cNsqdgwYgwqe-32" target="Lu-fr-W5cNsqdgwYgwqe-22">
          <mxGeometry width="50" height="50" relative="1" as="geometry">
            <mxPoint x="-451" y="681" as="sourcePoint" />
            <mxPoint x="-704" y="549" as="targetPoint" />
          </mxGeometry>
        </mxCell>
        <mxCell id="Lu-fr-W5cNsqdgwYgwqe-32" value="&lt;font style=&quot;font-size: 21px;&quot;&gt;Table&lt;/font&gt;" style="rounded=0;whiteSpace=wrap;html=1;" vertex="1" parent="1">
          <mxGeometry x="-489" y="583" width="88" height="38" as="geometry" />
        </mxCell>
        <mxCell id="Lu-fr-W5cNsqdgwYgwqe-60" value="" style="endArrow=none;html=1;rounded=0;exitX=0.5;exitY=0;exitDx=0;exitDy=0;" edge="1" parent="1">
          <mxGeometry width="50" height="50" relative="1" as="geometry">
            <mxPoint x="-257.9999999999998" y="582" as="sourcePoint" />
            <mxPoint x="-258" y="523" as="targetPoint" />
          </mxGeometry>
        </mxCell>
        <mxCell id="Lu-fr-W5cNsqdgwYgwqe-61" value="" style="endArrow=none;html=1;rounded=0;exitX=1;exitY=0.5;exitDx=0;exitDy=0;" edge="1" parent="1" source="Lu-fr-W5cNsqdgwYgwqe-17">
          <mxGeometry width="50" height="50" relative="1" as="geometry">
            <mxPoint x="-337" y="524" as="sourcePoint" />
            <mxPoint x="-258" y="524" as="targetPoint" />
          </mxGeometry>
        </mxCell>
        <mxCell id="Lu-fr-W5cNsqdgwYgwqe-62" value="&lt;font style=&quot;font-size: 21px;&quot;&gt;catagory&lt;/font&gt;" style="ellipse;whiteSpace=wrap;html=1;" vertex="1" parent="1">
          <mxGeometry x="-324" y="669" width="86" height="46" as="geometry" />
        </mxCell>
        <mxCell id="Lu-fr-W5cNsqdgwYgwqe-63" value="&lt;font style=&quot;font-size: 21px;&quot;&gt;&lt;u&gt;Roomno&lt;/u&gt;&lt;/font&gt;" style="ellipse;whiteSpace=wrap;html=1;" vertex="1" parent="1">
          <mxGeometry x="-227" y="673.5" width="88" height="55" as="geometry" />
        </mxCell>
        <mxCell id="Lu-fr-W5cNsqdgwYgwqe-64" value="&lt;font style=&quot;font-size: 21px;&quot;&gt;status&lt;/font&gt;" style="ellipse;whiteSpace=wrap;html=1;" vertex="1" parent="1">
          <mxGeometry x="-139" y="682.5" width="77" height="33" as="geometry" />
        </mxCell>
        <mxCell id="Lu-fr-W5cNsqdgwYgwqe-65" value="" style="endArrow=none;html=1;rounded=0;exitX=0.479;exitY=0.982;exitDx=0;exitDy=0;entryX=0.5;entryY=0;entryDx=0;entryDy=0;exitPerimeter=0;" edge="1" parent="1" source="Lu-fr-W5cNsqdgwYgwqe-68" target="Lu-fr-W5cNsqdgwYgwqe-64">
          <mxGeometry width="50" height="50" relative="1" as="geometry">
            <mxPoint x="-156" y="690" as="sourcePoint" />
            <mxPoint x="-160" y="512" as="targetPoint" />
          </mxGeometry>
        </mxCell>
        <mxCell id="Lu-fr-W5cNsqdgwYgwqe-66" value="" style="endArrow=none;html=1;rounded=0;entryX=1;entryY=0;entryDx=0;entryDy=0;exitX=0.466;exitY=0.977;exitDx=0;exitDy=0;exitPerimeter=0;" edge="1" parent="1" source="Lu-fr-W5cNsqdgwYgwqe-68" target="Lu-fr-W5cNsqdgwYgwqe-62">
          <mxGeometry width="50" height="50" relative="1" as="geometry">
            <mxPoint x="-156" y="690" as="sourcePoint" />
            <mxPoint x="-369" y="498" as="targetPoint" />
          </mxGeometry>
        </mxCell>
        <mxCell id="Lu-fr-W5cNsqdgwYgwqe-67" value="" style="endArrow=none;html=1;rounded=0;exitX=0.469;exitY=0.998;exitDx=0;exitDy=0;exitPerimeter=0;" edge="1" parent="1" source="Lu-fr-W5cNsqdgwYgwqe-68" target="Lu-fr-W5cNsqdgwYgwqe-63">
          <mxGeometry width="50" height="50" relative="1" as="geometry">
            <mxPoint x="-156" y="690" as="sourcePoint" />
            <mxPoint x="-409" y="558" as="targetPoint" />
          </mxGeometry>
        </mxCell>
        <mxCell id="Lu-fr-W5cNsqdgwYgwqe-68" value="&lt;font style=&quot;font-size: 21px;&quot;&gt;Room&lt;/font&gt;" style="rounded=0;whiteSpace=wrap;html=1;" vertex="1" parent="1">
          <mxGeometry x="-302" y="576" width="88" height="38" as="geometry" />
        </mxCell>
        <mxCell id="Lu-fr-W5cNsqdgwYgwqe-69" value="&lt;div&gt;&lt;font style=&quot;font-size: 21px;&quot;&gt;1&lt;/font&gt;&lt;/div&gt;" style="text;html=1;align=center;verticalAlign=middle;whiteSpace=wrap;rounded=0;" vertex="1" parent="1">
          <mxGeometry x="-403" y="429" width="23" height="30" as="geometry" />
        </mxCell>
        <mxCell id="Lu-fr-W5cNsqdgwYgwqe-71" value="&lt;div&gt;&lt;font style=&quot;font-size: 21px;&quot;&gt;1&lt;/font&gt;&lt;/div&gt;" style="text;html=1;align=center;verticalAlign=middle;whiteSpace=wrap;rounded=0;" vertex="1" parent="1">
          <mxGeometry x="-467" y="534" width="23" height="30" as="geometry" />
        </mxCell>
        <mxCell id="Lu-fr-W5cNsqdgwYgwqe-72" value="&lt;div&gt;&lt;font style=&quot;font-size: 21px;&quot;&gt;1&lt;/font&gt;&lt;/div&gt;" style="text;html=1;align=center;verticalAlign=middle;whiteSpace=wrap;rounded=0;" vertex="1" parent="1">
          <mxGeometry x="-261" y="534" width="23" height="30" as="geometry" />
        </mxCell>
        <mxCell id="Lu-fr-W5cNsqdgwYgwqe-74" value="&lt;font style=&quot;font-size: 19px;&quot;&gt;can&amp;nbsp;&lt;/font&gt;&lt;div&gt;&lt;font style=&quot;font-size: 19px;&quot;&gt;access&lt;/font&gt;&lt;/div&gt;" style="rhombus;whiteSpace=wrap;html=1;" vertex="1" parent="1">
          <mxGeometry x="-280" y="333" width="101" height="98" as="geometry" />
        </mxCell>
        <mxCell id="Lu-fr-W5cNsqdgwYgwqe-75" value="" style="endArrow=none;html=1;rounded=0;entryX=0;entryY=0.5;entryDx=0;entryDy=0;" edge="1" parent="1" source="Lu-fr-W5cNsqdgwYgwqe-8" target="Lu-fr-W5cNsqdgwYgwqe-74">
          <mxGeometry width="50" height="50" relative="1" as="geometry">
            <mxPoint x="-313" y="370.37" as="sourcePoint" />
            <mxPoint x="-232" y="370.37" as="targetPoint" />
          </mxGeometry>
        </mxCell>
        <mxCell id="Lu-fr-W5cNsqdgwYgwqe-76" value="" style="endArrow=none;html=1;rounded=0;exitX=0.5;exitY=0;exitDx=0;exitDy=0;" edge="1" parent="1" source="Lu-fr-W5cNsqdgwYgwqe-74">
          <mxGeometry width="50" height="50" relative="1" as="geometry">
            <mxPoint x="-196" y="301.97" as="sourcePoint" />
            <mxPoint x="-196" y="302" as="targetPoint" />
          </mxGeometry>
        </mxCell>
        <mxCell id="Lu-fr-W5cNsqdgwYgwqe-77" value="" style="endArrow=none;html=1;rounded=0;entryX=0;entryY=0.5;entryDx=0;entryDy=0;" edge="1" parent="1" target="Lu-fr-W5cNsqdgwYgwqe-80">
          <mxGeometry width="50" height="50" relative="1" as="geometry">
            <mxPoint x="-197" y="302" as="sourcePoint" />
            <mxPoint x="-82" y="302" as="targetPoint" />
          </mxGeometry>
        </mxCell>
        <mxCell id="Lu-fr-W5cNsqdgwYgwqe-78" value="" style="endArrow=none;html=1;rounded=0;entryX=0.5;entryY=1;entryDx=0;entryDy=0;" edge="1" parent="1" target="Lu-fr-W5cNsqdgwYgwqe-74">
          <mxGeometry width="50" height="50" relative="1" as="geometry">
            <mxPoint x="-229.75" y="454" as="sourcePoint" />
            <mxPoint x="-229.25000000000023" y="434" as="targetPoint" />
          </mxGeometry>
        </mxCell>
        <mxCell id="Lu-fr-W5cNsqdgwYgwqe-79" value="" style="endArrow=none;html=1;rounded=0;entryX=0;entryY=0.5;entryDx=0;entryDy=0;" edge="1" parent="1" target="Lu-fr-W5cNsqdgwYgwqe-81">
          <mxGeometry width="50" height="50" relative="1" as="geometry">
            <mxPoint x="-230" y="452.99823529411753" as="sourcePoint" />
            <mxPoint x="-115" y="453.07" as="targetPoint" />
          </mxGeometry>
        </mxCell>
        <mxCell id="Lu-fr-W5cNsqdgwYgwqe-80" value="&lt;font style=&quot;font-size: 21px;&quot;&gt;Inventory records&lt;/font&gt;" style="rounded=0;whiteSpace=wrap;html=1;" vertex="1" parent="1">
          <mxGeometry x="-115" y="278.5" width="99" height="48" as="geometry" />
        </mxCell>
        <mxCell id="Lu-fr-W5cNsqdgwYgwqe-81" value="&lt;font style=&quot;font-size: 21px;&quot;&gt;Sales&amp;nbsp;&lt;/font&gt;&lt;div&gt;&lt;font style=&quot;font-size: 21px;&quot;&gt;records&lt;/font&gt;&lt;/div&gt;" style="rounded=0;whiteSpace=wrap;html=1;" vertex="1" parent="1">
          <mxGeometry x="-131.5" y="429" width="132" height="49" as="geometry" />
        </mxCell>
        <mxCell id="Lu-fr-W5cNsqdgwYgwqe-82" value="&lt;div&gt;&lt;font style=&quot;font-size: 21px;&quot;&gt;1&lt;/font&gt;&lt;/div&gt;" style="text;html=1;align=center;verticalAlign=middle;whiteSpace=wrap;rounded=0;" vertex="1" parent="1">
          <mxGeometry x="-314" y="352" width="23" height="30" as="geometry" />
        </mxCell>
        <mxCell id="Lu-fr-W5cNsqdgwYgwqe-83" value="&lt;div&gt;&lt;font style=&quot;font-size: 21px;&quot;&gt;1&lt;/font&gt;&lt;/div&gt;" style="text;html=1;align=center;verticalAlign=middle;whiteSpace=wrap;rounded=0;" vertex="1" parent="1">
          <mxGeometry x="-181" y="429" width="23" height="30" as="geometry" />
        </mxCell>
        <mxCell id="Lu-fr-W5cNsqdgwYgwqe-84" value="&lt;div&gt;&lt;font style=&quot;font-size: 21px;&quot;&gt;1&lt;/font&gt;&lt;/div&gt;" style="text;html=1;align=center;verticalAlign=middle;whiteSpace=wrap;rounded=0;" vertex="1" parent="1">
          <mxGeometry x="-179" y="275" width="23" height="30" as="geometry" />
        </mxCell>
        <mxCell id="Lu-fr-W5cNsqdgwYgwqe-86" value="&lt;font style=&quot;font-size: 21px;&quot;&gt;entry_date&lt;/font&gt;" style="ellipse;whiteSpace=wrap;html=1;" vertex="1" parent="1">
          <mxGeometry x="10.5" y="210.5" width="132" height="40" as="geometry" />
        </mxCell>
        <mxCell id="Lu-fr-W5cNsqdgwYgwqe-87" value="&lt;u&gt;&lt;font style=&quot;font-size: 21px;&quot;&gt;item_id&lt;/font&gt;&lt;/u&gt;" style="ellipse;whiteSpace=wrap;html=1;" vertex="1" parent="1">
          <mxGeometry x="44.5" y="368.5" width="98" height="52" as="geometry" />
        </mxCell>
        <mxCell id="Lu-fr-W5cNsqdgwYgwqe-88" value="&lt;span style=&quot;font-size: 21px;&quot;&gt;catagory&lt;/span&gt;" style="ellipse;whiteSpace=wrap;html=1;" vertex="1" parent="1">
          <mxGeometry x="42.5" y="316.5" width="100" height="44" as="geometry" />
        </mxCell>
        <mxCell id="Lu-fr-W5cNsqdgwYgwqe-89" value="&lt;font style=&quot;font-size: 21px;&quot;&gt;exp_date&lt;/font&gt;" style="ellipse;whiteSpace=wrap;html=1;" vertex="1" parent="1">
          <mxGeometry x="40.5" y="258.5" width="102" height="44" as="geometry" />
        </mxCell>
        <mxCell id="Lu-fr-W5cNsqdgwYgwqe-90" value="" style="endArrow=none;html=1;rounded=0;entryX=0;entryY=0.5;entryDx=0;entryDy=0;exitX=1;exitY=0.5;exitDx=0;exitDy=0;" edge="1" parent="1" target="Lu-fr-W5cNsqdgwYgwqe-87" source="Lu-fr-W5cNsqdgwYgwqe-80">
          <mxGeometry width="50" height="50" relative="1" as="geometry">
            <mxPoint x="264" y="242" as="sourcePoint" />
            <mxPoint x="306" y="132" as="targetPoint" />
          </mxGeometry>
        </mxCell>
        <mxCell id="Lu-fr-W5cNsqdgwYgwqe-91" value="" style="endArrow=none;html=1;rounded=0;exitX=1;exitY=0.5;exitDx=0;exitDy=0;entryX=0;entryY=0.5;entryDx=0;entryDy=0;" edge="1" parent="1" source="Lu-fr-W5cNsqdgwYgwqe-80" target="Lu-fr-W5cNsqdgwYgwqe-88">
          <mxGeometry width="50" height="50" relative="1" as="geometry">
            <mxPoint x="264" y="242" as="sourcePoint" />
            <mxPoint x="375" y="102" as="targetPoint" />
          </mxGeometry>
        </mxCell>
        <mxCell id="Lu-fr-W5cNsqdgwYgwqe-93" value="" style="endArrow=none;html=1;rounded=0;exitX=1;exitY=0.5;exitDx=0;exitDy=0;entryX=0;entryY=1;entryDx=0;entryDy=0;" edge="1" parent="1" target="Lu-fr-W5cNsqdgwYgwqe-86" source="Lu-fr-W5cNsqdgwYgwqe-80">
          <mxGeometry width="50" height="50" relative="1" as="geometry">
            <mxPoint x="-22" y="308" as="sourcePoint" />
            <mxPoint x="126" y="148" as="targetPoint" />
          </mxGeometry>
        </mxCell>
        <mxCell id="Lu-fr-W5cNsqdgwYgwqe-95" value="" style="endArrow=none;html=1;rounded=0;entryX=0;entryY=0.5;entryDx=0;entryDy=0;exitX=1;exitY=0.5;exitDx=0;exitDy=0;" edge="1" parent="1" target="Lu-fr-W5cNsqdgwYgwqe-89" source="Lu-fr-W5cNsqdgwYgwqe-80">
          <mxGeometry width="50" height="50" relative="1" as="geometry">
            <mxPoint x="-16" y="303" as="sourcePoint" />
            <mxPoint x="99" y="209" as="targetPoint" />
          </mxGeometry>
        </mxCell>
        <mxCell id="Lu-fr-W5cNsqdgwYgwqe-100" value="&lt;span style=&quot;font-size: 21px;&quot;&gt;item_name&lt;/span&gt;" style="ellipse;whiteSpace=wrap;html=1;" vertex="1" parent="1">
          <mxGeometry x="0.5" y="159.5" width="120.5" height="41" as="geometry" />
        </mxCell>
        <mxCell id="Lu-fr-W5cNsqdgwYgwqe-101" value="" style="endArrow=none;html=1;rounded=0;exitX=1;exitY=0.5;exitDx=0;exitDy=0;entryX=0;entryY=1;entryDx=0;entryDy=0;" edge="1" parent="1" source="Lu-fr-W5cNsqdgwYgwqe-80" target="Lu-fr-W5cNsqdgwYgwqe-100">
          <mxGeometry width="50" height="50" relative="1" as="geometry">
            <mxPoint x="-36" y="275" as="sourcePoint" />
            <mxPoint x="43" y="189" as="targetPoint" />
          </mxGeometry>
        </mxCell>
        <mxCell id="Lu-fr-W5cNsqdgwYgwqe-107" value="&lt;font style=&quot;font-size: 21px;&quot;&gt;time&lt;/font&gt;" style="ellipse;whiteSpace=wrap;html=1;" vertex="1" parent="1">
          <mxGeometry x="-195" y="495" width="80" height="27.5" as="geometry" />
        </mxCell>
        <mxCell id="Lu-fr-W5cNsqdgwYgwqe-109" value="&lt;font style=&quot;font-size: 21px;&quot;&gt;&lt;u&gt;sales_no&lt;/u&gt;&lt;/font&gt;" style="ellipse;whiteSpace=wrap;html=1;" vertex="1" parent="1">
          <mxGeometry x="-99.5" y="501" width="110" height="33" as="geometry" />
        </mxCell>
        <mxCell id="Lu-fr-W5cNsqdgwYgwqe-110" value="" style="endArrow=none;html=1;rounded=0;entryX=0.5;entryY=0;entryDx=0;entryDy=0;exitX=0.5;exitY=1;exitDx=0;exitDy=0;" edge="1" parent="1" target="Lu-fr-W5cNsqdgwYgwqe-109" source="Lu-fr-W5cNsqdgwYgwqe-81">
          <mxGeometry width="50" height="50" relative="1" as="geometry">
            <mxPoint x="-66" y="484" as="sourcePoint" />
            <mxPoint x="32.5" y="383" as="targetPoint" />
          </mxGeometry>
        </mxCell>
        <mxCell id="Lu-fr-W5cNsqdgwYgwqe-111" value="" style="endArrow=none;html=1;rounded=0;entryX=0.5;entryY=0;entryDx=0;entryDy=0;exitX=0.5;exitY=1;exitDx=0;exitDy=0;" edge="1" parent="1" target="Lu-fr-W5cNsqdgwYgwqe-107" source="Lu-fr-W5cNsqdgwYgwqe-81">
          <mxGeometry width="50" height="50" relative="1" as="geometry">
            <mxPoint x="-68.5" y="484" as="sourcePoint" />
            <mxPoint x="-176.5" y="369" as="targetPoint" />
          </mxGeometry>
        </mxCell>
        <mxCell id="Lu-fr-W5cNsqdgwYgwqe-114" value="&lt;font style=&quot;font-size: 19px;&quot;&gt;can&lt;/font&gt;&lt;div&gt;&lt;font style=&quot;font-size: 19px;&quot;&gt;&amp;nbsp;order&lt;/font&gt;&lt;/div&gt;&lt;div&gt;&lt;font style=&quot;font-size: 19px;&quot;&gt;&amp;nbsp;from&lt;/font&gt;&lt;/div&gt;" style="rhombus;whiteSpace=wrap;html=1;" vertex="1" parent="1">
          <mxGeometry x="191" y="591" width="110" height="99" as="geometry" />
        </mxCell>
        <mxCell id="Lu-fr-W5cNsqdgwYgwqe-117" value="" style="endArrow=none;html=1;rounded=0;entryX=0.5;entryY=0;entryDx=0;entryDy=0;exitX=0.5;exitY=1;exitDx=0;exitDy=0;" edge="1" parent="1" source="Lu-fr-W5cNsqdgwYgwqe-134" target="Lu-fr-W5cNsqdgwYgwqe-114">
          <mxGeometry width="50" height="50" relative="1" as="geometry">
            <mxPoint x="357" y="610" as="sourcePoint" />
            <mxPoint x="242" y="617.5" as="targetPoint" />
          </mxGeometry>
        </mxCell>
        <mxCell id="Lu-fr-W5cNsqdgwYgwqe-118" value="" style="endArrow=none;html=1;rounded=0;exitX=0;exitY=0.5;exitDx=0;exitDy=0;entryX=0.5;entryY=0;entryDx=0;entryDy=0;" edge="1" parent="1" source="Lu-fr-W5cNsqdgwYgwqe-114" target="Lu-fr-W5cNsqdgwYgwqe-119">
          <mxGeometry width="50" height="50" relative="1" as="geometry">
            <mxPoint x="222" y="762" as="sourcePoint" />
            <mxPoint x="136" y="712" as="targetPoint" />
          </mxGeometry>
        </mxCell>
        <mxCell id="Lu-fr-W5cNsqdgwYgwqe-119" value="&lt;font style=&quot;font-size: 21px;&quot;&gt;Menu&lt;/font&gt;" style="rounded=0;whiteSpace=wrap;html=1;" vertex="1" parent="1">
          <mxGeometry x="103" y="691" width="88" height="38" as="geometry" />
        </mxCell>
        <mxCell id="Lu-fr-W5cNsqdgwYgwqe-120" value="&lt;font style=&quot;font-size: 21px;&quot;&gt;category&lt;/font&gt;" style="ellipse;whiteSpace=wrap;html=1;" vertex="1" parent="1">
          <mxGeometry x="-84" y="770.5" width="97" height="49" as="geometry" />
        </mxCell>
        <mxCell id="Lu-fr-W5cNsqdgwYgwqe-121" value="&lt;font style=&quot;font-size: 21px;&quot;&gt;&lt;u&gt;food_id&lt;/u&gt;&lt;/font&gt;" style="ellipse;whiteSpace=wrap;html=1;" vertex="1" parent="1">
          <mxGeometry x="13" y="787" width="88" height="55" as="geometry" />
        </mxCell>
        <mxCell id="Lu-fr-W5cNsqdgwYgwqe-122" value="&lt;span style=&quot;font-size: 21px;&quot;&gt;food_name&lt;/span&gt;" style="ellipse;whiteSpace=wrap;html=1;" vertex="1" parent="1">
          <mxGeometry x="114" y="793.5" width="110" height="42" as="geometry" />
        </mxCell>
        <mxCell id="Lu-fr-W5cNsqdgwYgwqe-123" value="" style="endArrow=none;html=1;rounded=0;exitX=0.25;exitY=1;exitDx=0;exitDy=0;entryX=0.5;entryY=0;entryDx=0;entryDy=0;" edge="1" parent="1" target="Lu-fr-W5cNsqdgwYgwqe-122" source="Lu-fr-W5cNsqdgwYgwqe-119">
          <mxGeometry width="50" height="50" relative="1" as="geometry">
            <mxPoint x="121" y="750.5" as="sourcePoint" />
            <mxPoint x="113" y="633.5" as="targetPoint" />
          </mxGeometry>
        </mxCell>
        <mxCell id="Lu-fr-W5cNsqdgwYgwqe-124" value="" style="endArrow=none;html=1;rounded=0;entryX=0.5;entryY=0;entryDx=0;entryDy=0;exitX=0.25;exitY=1;exitDx=0;exitDy=0;" edge="1" parent="1" target="Lu-fr-W5cNsqdgwYgwqe-120" source="Lu-fr-W5cNsqdgwYgwqe-119">
          <mxGeometry width="50" height="50" relative="1" as="geometry">
            <mxPoint x="120" y="750.5" as="sourcePoint" />
            <mxPoint x="-96" y="619.5" as="targetPoint" />
          </mxGeometry>
        </mxCell>
        <mxCell id="Lu-fr-W5cNsqdgwYgwqe-125" value="" style="endArrow=none;html=1;rounded=0;exitX=0.25;exitY=1;exitDx=0;exitDy=0;" edge="1" parent="1" target="Lu-fr-W5cNsqdgwYgwqe-121" source="Lu-fr-W5cNsqdgwYgwqe-119">
          <mxGeometry width="50" height="50" relative="1" as="geometry">
            <mxPoint x="120" y="752" as="sourcePoint" />
            <mxPoint x="-136" y="679.5" as="targetPoint" />
          </mxGeometry>
        </mxCell>
        <mxCell id="Lu-fr-W5cNsqdgwYgwqe-128" value="&lt;div&gt;&lt;font style=&quot;font-size: 21px;&quot;&gt;1&lt;/font&gt;&lt;/div&gt;" style="text;html=1;align=center;verticalAlign=middle;whiteSpace=wrap;rounded=0;" vertex="1" parent="1">
          <mxGeometry x="244" y="541" width="23" height="30" as="geometry" />
        </mxCell>
        <mxCell id="Lu-fr-W5cNsqdgwYgwqe-129" value="&lt;div&gt;&lt;font style=&quot;font-size: 21px;&quot;&gt;1&lt;/font&gt;&lt;/div&gt;" style="text;html=1;align=center;verticalAlign=middle;whiteSpace=wrap;rounded=0;" vertex="1" parent="1">
          <mxGeometry x="147" y="646" width="23" height="30" as="geometry" />
        </mxCell>
        <mxCell id="Lu-fr-W5cNsqdgwYgwqe-130" value="&lt;font style=&quot;font-size: 21px;&quot;&gt;price&lt;/font&gt;" style="ellipse;whiteSpace=wrap;html=1;" vertex="1" parent="1">
          <mxGeometry x="-99.5" y="638" width="66.5" height="35.5" as="geometry" />
        </mxCell>
        <mxCell id="Lu-fr-W5cNsqdgwYgwqe-131" value="" style="endArrow=none;html=1;rounded=0;exitX=0.5;exitY=1;exitDx=0;exitDy=0;entryX=0;entryY=0.5;entryDx=0;entryDy=0;" edge="1" parent="1" source="Lu-fr-W5cNsqdgwYgwqe-68" target="Lu-fr-W5cNsqdgwYgwqe-130">
          <mxGeometry width="50" height="50" relative="1" as="geometry">
            <mxPoint x="-249.5" y="599" as="sourcePoint" />
            <mxPoint x="-89.5" y="669" as="targetPoint" />
          </mxGeometry>
        </mxCell>
        <mxCell id="Lu-fr-W5cNsqdgwYgwqe-132" value="&lt;font style=&quot;font-size: 21px;&quot;&gt;price&lt;/font&gt;" style="ellipse;whiteSpace=wrap;html=1;" vertex="1" parent="1">
          <mxGeometry x="-216.25" y="796.75" width="66.5" height="35.5" as="geometry" />
        </mxCell>
        <mxCell id="Lu-fr-W5cNsqdgwYgwqe-133" value="" style="endArrow=none;html=1;rounded=0;exitX=0.25;exitY=1;exitDx=0;exitDy=0;entryX=1;entryY=0.5;entryDx=0;entryDy=0;" edge="1" parent="1" source="Lu-fr-W5cNsqdgwYgwqe-119" target="Lu-fr-W5cNsqdgwYgwqe-132">
          <mxGeometry width="50" height="50" relative="1" as="geometry">
            <mxPoint x="41" y="689.5" as="sourcePoint" />
            <mxPoint x="-7" y="750.5" as="targetPoint" />
          </mxGeometry>
        </mxCell>
        <mxCell id="Lu-fr-W5cNsqdgwYgwqe-134" value="&lt;font style=&quot;font-size: 21px;&quot;&gt;Customer/ waiter&lt;/font&gt;" style="rounded=0;whiteSpace=wrap;html=1;" vertex="1" parent="1">
          <mxGeometry x="163.5" y="484" width="165" height="38" as="geometry" />
        </mxCell>
      </root>
    </mxGraphModel>
  </diagram>
</mxfile>
